<svg xmlns:mydata="http://www.w3.org/2000/svg" 
mydata:contrastcolor="676767" 
mydata:template="Contrast"
 mydata:presentation="2.5"
  mydata:layouttype="undefined"
   mydata:specialfontid="undefined" 
   mydata:id1="934" 
   mydata:id2="001"
    mydata:companyname="Distribuidora 360" 
    mydata:companytagline=""
     version="1.1" xmlns="http://www.w3.org/2000/svg"
      xmlns:xlink="http://www.w3.org/1999/xlink"
       viewBox="0 -40 550 550">
       <g 
       fill="none"
        fill-rule="none"
         stroke="none" 
         stroke-width="1"
          stroke-linecap="butt" 
          stroke-linejoin="miter"
           stroke-miterlimit="10"
            stroke-dasharray=""
             stroke-dashoffset="0" 
             font-family="none" 
             font-weight="none"
              font-size="none"
               text-anchor="none"
                style="mix-blend-mode: normal">
                <g 
                data-paper-data="{&quot;isGlobalGroup&quot;:true,&quot;bounds&quot;:{&quot;x&quot;:65,&quot;y&quot;:144.48926302348562,&quot;width&quot;:420,&quot;height&quot;:181.0214739530288}}"
                >
                <g data-paper-data="{&quot;isPrimaryText&quot;:true}" fill-rule="nonzero">
                
                 <path d="M65,278.98023c0,0.09577 0.03192,0.12769 0.12769,0.12769h21.739c0.76613,0 1.11728,0.12769 1.27689,0.35114c0.15961,0.15961 0.31922,0.47883 0.31922,1.24496v9.41704c0,1.24496 -0.35114,1.56419 -1.59611,1.56419h-21.739c-0.09577,0 -0.12769,0.03192 -0.12769,0.12769v3.51144c0,0.73421 0.51075,1.24496 1.24496,1.24496h21.35593c4.08604,0 6.12906,-2.04302 6.12906,-6.16098v-10.02356c0,-4.11796 -2.04302,-6.16098 -6.12906,-6.16098h-21.35593c-0.25538,0 -0.47883,0.06384 -0.70229,0.22346l-0.25538,0.22346c-0.09577,0.09577 -0.15961,0.22346 -0.19153,0.31922c-0.03192,0.03192 -0.03192,0.06384 -0.03192,0.12769c-0.03192,0.22346 -0.06384,0.31922 -0.06384,0.35114z"
                  data-paper-data="{&quot;glyphName&quot;:&quot;d&quot;,&quot;glyphIndex&quot;:0,&quot;firstGlyphOfWord&quot;:true,&quot;word&quot;:1,&quot;line&quot;:1,&quot;firstGlyphOfFirstLine&quot;:true}" 
                  fill="#ffffff"></path>
                  <path d="M105.45603,274.22383c-0.73421,0 -1.24496,0.51075 -1.24496,1.24496v19.85559c0,0.73421 0.51075,1.24496 1.24496,1.24496h2.80915c0.2873,0 0.63844,-0.06384 0.89382,-0.35114c0.2873,-0.2873 0.35114,-0.63844 0.35114,-0.89382v-19.85559c0,-0.25538 -0.06384,-0.60652 -0.35114,-0.89382c-0.25538,-0.2873 -0.60652,-0.35114 -0.89382,-0.35114z" 
                  data-paper-data="{&quot;glyphName&quot;:&quot;i&quot;,&quot;glyphIndex&quot;:1,&quot;word&quot;:1,&quot;line&quot;:1}" 
                  fill="#ffffff"></path>
                  <path d="M126.98221,274.00037c-4.37334,0 -6.99096,1.91533 -6.99096,6.4802c0,4.4691 2.61762,6.4802 6.92711,6.73558l13.43923,0.76613c0.98959,0.03192 1.4365,0.2873 1.69188,0.54268c0.25538,0.2873 0.38307,0.76613 0.38307,1.4365c0,1.40458 -0.60652,1.7238 -1.97917,1.7238c-2.80915,0.03192 -5.39485,0.03192 -7.94862,0.03192c-4.24565,0 -9.0659,0.03192 -11.20468,0.03192h-1.18112c-0.09577,0.03192 -0.12769,0.06384 -0.12769,0.15961c0.09577,2.5857 2.20263,4.66064 4.78833,4.66064h15.92916c4.43718,0 6.99096,-1.91533 6.99096,-6.51212c0,-4.43718 -2.68146,-6.4802 -6.92711,-6.70366l-13.43923,-0.76613c-0.98959,-0.09577 -1.4365,-0.2873 -1.69188,-0.5746c-0.2873,-0.2873 -0.41499,-0.73421 -0.41499,-1.40458c0,-0.73421 0.15961,-1.08535 0.38307,-1.30881c0.22346,-0.22346 0.70229,-0.41499 1.59611,-0.41499h20.36634c0.09577,0 0.12769,-0.03192 0.12769,-0.12769v-0.03192c0,-2.64954 -2.07494,-4.72448 -4.72448,-4.72448z"
                   data-paper-data="{&quot;glyphName&quot;:&quot;s&quot;,&quot;glyphIndex&quot;:2,&quot;word&quot;:1,&quot;line&quot;:1}" 
                   fill="#ffffff"></path>
                   <path d="M157.82967,274.22383c-0.73421,0 -1.24496,0.51075 -1.24496,1.24496v2.39416c0,0.2873 0.06384,0.63844 0.35114,0.92574c0.2873,0.25538 0.63844,0.31922 0.89382,0.31922h9.99164v16.21646c0,0.25538 0.06384,0.60652 0.35114,0.89382c0.25538,0.2873 0.60652,0.35114 0.89382,0.35114h2.74531c0.2873,0 0.63844,-0.06384 0.89382,-0.35114c0.2873,-0.2873 0.35114,-0.63844 0.35114,-0.89382v-16.21646h9.95972c0.73421,0 1.27689,-0.47883 1.27689,-1.24496v-2.39416c0,-0.2873 -0.12769,-0.60652 -0.35114,-0.89382c-0.2873,-0.25538 -0.63844,-0.35114 -0.92574,-0.35114z" 
                   data-paper-data="{&quot;glyphName&quot;:&quot;t&quot;,&quot;glyphIndex&quot;:3,&quot;word&quot;:1,&quot;line&quot;:1}" 
                   fill="#ffffff"></path>
                   <path d="M194.42312,274.22383c-0.73421,0 -1.24496,0.51075 -1.24496,1.24496v3.51144c0,0.09577 0.03192,0.12769 0.12769,0.12769h19.4406c0.79805,0 1.1492,0.12769 1.30881,0.35114c0.15961,0.15961 0.31922,0.47883 0.31922,1.24496v3.76682c0,1.27689 -0.35114,1.59611 -1.62803,1.59611h-11.55583c-0.12769,0 -0.19153,0.12769 -0.09577,0.22346c1.88341,1.78764 6.92711,6.67173 10.59816,10.24702c0,0.03192 0.03192,0.03192 0.09577,0.03192h7.24633c0.09577,0 0.19153,-0.12769 0.09577,-0.22346c-1.11728,-1.11728 -4.14988,-3.99027 -5.49061,-5.26716c-0.09577,-0.09577 -0.03192,-0.22346 0.09577,-0.22346c3.99027,-0.41499 5.96945,-1.88341 5.96945,-6.03329v-4.43718c0,-3.99027 -2.17071,-6.16098 -6.16098,-6.16098z" 
                   data-paper-data="{&quot;glyphName&quot;:&quot;r&quot;,&quot;glyphIndex&quot;:4,&quot;word&quot;:1,&quot;line&quot;:1}" 
                   fill="#ffffff"></path>
                   <path d="M231.43156,274.22383c-0.73421,0 -1.24496,0.51075 -1.24496,1.24496v19.85559c0,0.73421 0.51075,1.24496 1.24496,1.24496h2.80915c0.2873,0 0.63844,-0.06384 0.89382,-0.35114c0.2873,-0.2873 0.35114,-0.63844 0.35114,-0.89382v-19.85559c0,-0.25538 -0.06384,-0.60652 -0.35114,-0.89382c-0.25538,-0.2873 -0.60652,-0.35114 -0.89382,-0.35114z" 
                   data-paper-data="{&quot;glyphName&quot;:&quot;i&quot;,&quot;glyphIndex&quot;:5,&quot;word&quot;:1,&quot;line&quot;:1}" 
                   fill="#ffffff"></path>
                   <path d="M245.96679,286.92885c0,0.09577 0.03192,0.12769 0.12769,0.12769h21.70708c1.50034,0 1.97917,0.51075 1.97917,2.0111v0.98959c0,1.50034 -0.5746,1.85149 -1.97917,1.85149h-21.70708c-0.09577,0 -0.12769,0.03192 -0.12769,0.12769v4.56487c0,0.09577 0.03192,0.12769 0.12769,0.12769h21.93053c4.37334,0 6.89519,-2.17071 6.89519,-6.67173v-0.98959c0,-1.91533 -0.54268,-3.63913 -2.17071,-4.7564c1.11728,-0.98959 1.46842,-2.48993 1.46842,-3.92643c0,-4.1818 -2.13879,-6.28867 -6.44828,-6.28867h-21.67515c-0.09577,0 -0.12769,0.03192 -0.12769,0.12769v4.34142c0,0.09577 0.03192,0.12769 0.12769,0.12769h21.41978c0.8619,0 1.21304,0.15961 1.37265,0.38307c0.22346,0.19153 0.35114,0.63844 0.35114,1.30881c0,0.73421 -0.09577,1.08535 -0.31922,1.30881c-0.22346,0.15961 -0.54268,0.35114 -1.40458,0.35114h-21.41978c-0.09577,0 -0.12769,0.03192 -0.12769,0.12769z" 
                   data-paper-data="{&quot;glyphName&quot;:&quot;b&quot;,&quot;glyphIndex&quot;:6,&quot;word&quot;:1,&quot;line&quot;:1}"
                    fill="#ffffff"></path><path d="M286.64627,274.22383c-0.73421,0 -1.24496,0.51075 -1.24496,1.24496v14.93958c0,3.99027 2.0111,6.16098 6.12906,6.16098h15.99301c4.08604,0 6.12906,-2.04302 6.12906,-6.16098v-14.93958c0,-0.25538 -0.06384,-0.60652 -0.31922,-0.89382c-0.2873,-0.2873 -0.63844,-0.35114 -0.92574,-0.35114h-2.80915c-0.73421,0 -1.24496,0.51075 -1.24496,1.24496v14.65228c0,1.24496 -0.35114,1.56419 -1.59611,1.56419h-14.42882c-1.24496,0 -1.62803,-0.31922 -1.62803,-1.56419v-14.65228c0,-0.25538 -0.06384,-0.60652 -0.35114,-0.89382c-0.25538,-0.2873 -0.60652,-0.35114 -0.89382,-0.35114z"
                     data-paper-data="{&quot;glyphName&quot;:&quot;u&quot;,&quot;glyphIndex&quot;:7,&quot;word&quot;:1,&quot;line&quot;:1}" 
                     fill="#ffffff"></path>
                     <path d="M325.37851,274.22383c-0.73421,0 -1.24496,0.51075 -1.24496,1.24496v19.85559c0,0.73421 0.51075,1.24496 1.24496,1.24496h2.80915c0.2873,0 0.63844,-0.06384 0.89382,-0.35114c0.2873,-0.2873 0.35114,-0.63844 0.35114,-0.89382v-19.85559c0,-0.25538 -0.06384,-0.60652 -0.35114,-0.89382c-0.25538,-0.2873 -0.60652,-0.35114 -0.89382,-0.35114z" 
                     data-paper-data="{&quot;glyphName&quot;:&quot;i&quot;,&quot;glyphIndex&quot;:8,&quot;word&quot;:1,&quot;line&quot;:1}"
                      fill="#ffffff"></path>
                      <path d="M339.91373,278.98023c0,0.09577 0.03192,0.12769 0.12769,0.12769h21.739c0.76613,0 1.11728,0.12769 1.27689,0.35114c0.15961,0.15961 0.31922,0.47883 0.31922,1.24496v9.41704c0,1.24496 -0.35114,1.56419 -1.59611,1.56419h-21.739c-0.09577,0 -0.12769,0.03192 -0.12769,0.12769v3.51144c0,0.73421 0.51075,1.24496 1.24496,1.24496h21.35593c4.08604,0 6.12906,-2.04302 6.12906,-6.16098v-10.02356c0,-4.11796 -2.04302,-6.16098 -6.12906,-6.16098h-21.35593c-0.25538,0 -0.47883,0.06384 -0.70229,0.22346l-0.25538,0.22346c-0.09577,0.09577 -0.15961,0.22346 -0.19153,0.31922c-0.03192,0.03192 -0.03192,0.06384 -0.03192,0.12769c-0.03192,0.22346 -0.06384,0.31922 -0.06384,0.35114z" 
                      data-paper-data="{&quot;glyphName&quot;:&quot;d&quot;,&quot;glyphIndex&quot;:9,&quot;word&quot;:1,&quot;line&quot;:1}" fill="#ffffff"></path>
                      <path d="M379.1248,290.53606c0,4.11796 2.2984,6.16098 6.28867,6.16098h15.70571c3.99027,0 6.25675,-2.17071 6.25675,-6.16098v-10.24702c0,-4.11796 -2.26647,-6.16098 -6.25675,-6.16098h-15.70571c-4.11796,0 -6.28867,2.04302 -6.28867,6.16098zM384.42388,280.57634c0,-0.60652 0.12769,-1.02151 0.35114,-1.18112c0.22346,-0.22346 0.63844,-0.38307 1.4365,-0.38307h14.1096c1.24496,0 1.75572,0.2873 1.75572,1.56419v9.6405c0,0.73421 -0.15961,0.98959 -0.31922,1.21304c-0.22346,0.22346 -0.63844,0.38307 -1.4365,0.38307h-14.1096c-0.79805,0 -1.21304,-0.19153 -1.4365,-0.41499c-0.22346,-0.15961 -0.35114,-0.5746 -0.35114,-1.18112z" 
                      data-paper-data="{&quot;glyphName&quot;:&quot;o&quot;,&quot;glyphIndex&quot;:10,&quot;word&quot;:1,&quot;line&quot;:1}" fill="#ffffff"></path>
                      <path d="M419.102,274.22383c-0.73421,0 -1.24496,0.51075 -1.24496,1.24496v3.51144c0,0.09577 0.03192,0.12769 0.12769,0.12769h19.4406c0.79805,0 1.1492,0.12769 1.30881,0.35114c0.15961,0.15961 0.31922,0.47883 0.31922,1.24496v3.76682c0,1.27689 -0.35114,1.59611 -1.62803,1.59611h-11.55583c-0.12769,0 -0.19153,0.12769 -0.09577,0.22346c1.88341,1.78764 6.92711,6.67173 10.59816,10.24702c0,0.03192 0.03192,0.03192 0.09577,0.03192h7.24633c0.09577,0 0.19153,-0.12769 0.09577,-0.22346c-1.11728,-1.11728 -4.14988,-3.99027 -5.49061,-5.26716c-0.09577,-0.09577 -0.03192,-0.22346 0.09577,-0.22346c3.99027,-0.41499 5.96945,-1.88341 5.96945,-6.03329v-4.43718c0,-3.99027 -2.17071,-6.16098 -6.16098,-6.16098z" 
                      data-paper-data="{&quot;glyphName&quot;:&quot;r&quot;,&quot;glyphIndex&quot;:11,&quot;word&quot;:1,&quot;line&quot;:1}"
                       fill="#ffffff"></path>
                       <path d="M453.26936,295.42015c0,0.41499 0.15961,0.73421 0.51075,0.98959c0.25538,0.09577 0.47883,0.15961 0.67037,0.15961h3.28798c0.12769,0 0.35114,-0.06384 0.67037,-0.15961c0.35114,-0.22346 0.54268,-0.47883 0.67037,-0.70229l1.75572,-2.68146l3.06453,-4.82025l5.10755,-7.88478c0.09577,-0.09577 0.15961,-0.09577 0.25538,0l8.204,12.70502l1.08535,1.62803l0.67037,1.05343c0.09577,0.15961 0.2873,0.47883 0.67037,0.70229c0.15961,0.09577 0.38307,0.15961 0.63844,0.15961h3.28798c0.19153,0 0.41499,-0.06384 0.67037,-0.15961c0.35114,-0.25538 0.51075,-0.5746 0.51075,-0.98959c-0.03192,-0.22346 -0.09577,-0.44691 -0.22346,-0.63844l-12.76887,-19.69598c-0.2873,-0.51075 -0.73421,-0.8619 -1.34073,-0.8619h-3.06453c-0.25538,0 -0.47883,0.06384 -0.67037,0.19153c-0.35114,0.22346 -0.54268,0.47883 -0.63844,0.63844l-12.80079,19.69598c-0.09577,0.22346 -0.22346,0.41499 -0.22346,0.67037z" 
                       data-paper-data="{&quot;glyphName&quot;:&quot;a&quot;,&quot;glyphIndex&quot;:12,&quot;lastGlyphOfWord&quot;:true,&quot;word&quot;:1,&quot;line&quot;:1,&quot;lastGlyphOfFirstLine&quot;:true}"
                  fill="#ffffff">
                  </path>
                  <path 
                  d="M223.61063,303.1333c-0.19153,0.15961 -0.2873,0.38307 -0.2873,0.67037v2.90492c0,0.2873 0.09577,0.47883 0.2873,0.63844c0.15961,0.19153 0.35114,0.2873 0.63844,0.2873h18.51486c0.73421,0 1.11728,0.19153 1.37265,0.41499c0.22346,0.25538 0.38307,0.63844 0.38307,1.30881c0,0.98959 -0.09577,1.4365 -0.38307,1.69188c-0.22346,0.22346 -0.67037,0.44691 -1.78764,0.44691h-12.83271c-0.47883,0 -0.92574,0.47883 -0.92574,0.95767v2.90492c0,0.22346 0.09577,0.44691 0.2873,0.63844c0.15961,0.19153 0.35114,0.2873 0.63844,0.2873h12.83271c2.0111,0 2.55377,0.63844 2.55377,2.64954c0,1.18112 -0.60652,1.75572 -1.78764,1.75572h-18.866c-0.2873,0 -0.47883,0.09577 -0.63844,0.2873c-0.19153,0.15961 -0.2873,0.38307 -0.2873,0.63844v2.93684c0,0.2873 0.09577,0.51075 0.2873,0.67037c0.19153,0.19153 0.41499,0.2873 0.63844,0.2873h19.05754c4.24565,0 6.73558,-2.33032 6.73558,-6.57597c0,-2.04302 -0.38307,-3.86258 -2.20263,-4.97986c-0.09577,-0.06384 -0.12769,-0.12769 -0.03192,-0.22346c1.56419,-0.98959 1.88341,-2.5857 1.88341,-4.37334c0,-4.37334 -2.52185,-6.4802 -6.7675,-6.4802h-18.67447c-0.25538,0 -0.47883,0.09577 -0.63844,0.25538z" 
                  data-paper-data="{&quot;glyphName&quot;:&quot;3&quot;,&quot;glyphIndex&quot;:13,&quot;firstGlyphOfWord&quot;:true,&quot;word&quot;:2,&quot;line&quot;:2,&quot;firstGlyphOfSecondLine&quot;:true}" fill="#b10000"></path>
                  <path d="M260.5233,318.61555c0,4.50103 2.39416,6.89519 6.89519,6.89519h13.63077c4.50103,0 6.89519,-2.39416 6.89519,-6.89519v-0.92574c0,-4.30949 -1.97917,-6.86327 -6.41636,-6.86327h-15.70571c-0.09577,0 -0.12769,-0.03192 -0.12769,-0.12769v-1.34073c0,-1.24496 0.41499,-1.69188 1.65995,-1.69188h19.66406c0.2873,0 0.51075,-0.09577 0.67037,-0.2873c0.15961,-0.15961 0.25538,-0.38307 0.25538,-0.63844v-2.93684c0,-0.54268 -0.38307,-0.92574 -0.92574,-0.92574h-19.79175c-4.24565,0 -6.70366,2.10686 -6.70366,6.4802zM267.64194,320.69049c-1.53226,0 -1.94725,-0.5746 -1.94725,-2.07494v-2.873c0,-0.09577 0.03192,-0.12769 0.12769,-0.12769h15.00342c1.50034,0 1.97917,0.5746 1.97917,2.07494v0.92574c0,0.98959 -0.22346,1.40458 -0.44691,1.65995c-0.2873,0.2873 -0.79805,0.41499 -1.53226,0.41499z" 
                  data-paper-data="{&quot;glyphName&quot;:&quot;6&quot;,&quot;glyphIndex&quot;:14,&quot;word&quot;:2,&quot;line&quot;:2}" 
                  fill="#b10000"></path>
                  <path d="M298.42555,319.31784c0,4.11796 2.2984,6.16098 6.28867,6.16098h15.70571c3.99027,0 6.25675,-2.17071 6.25675,-6.16098v-10.27894c0,-3.99027 -2.26647,-6.16098 -6.25675,-6.16098h-15.70571c-3.99027,0 -6.28867,2.04302 -6.28867,6.16098zM303.72463,309.35812c0,-0.60652 0.12769,-1.02151 0.35114,-1.18112c0.22346,-0.22346 0.63844,-0.38307 1.4365,-0.38307h14.1096c1.24496,0 1.75572,0.2873 1.75572,1.56419v9.6405c0,1.27689 -0.51075,1.56419 -1.75572,1.56419h-14.1096c-0.79805,0 -1.21304,-0.15961 -1.4365,-0.38307c-0.22346,-0.15961 -0.35114,-0.5746 -0.35114,-1.18112z" 
                  data-paper-data="{&quot;glyphName&quot;:&quot;0&quot;,&quot;glyphIndex&quot;:15,&quot;lastGlyphOfWord&quot;:true,&quot;word&quot;:2,&quot;line&quot;:2,&quot;lastGlyphOfSecondLine&quot;:true}" 
                  fill="#b10000"></path></g>
                  <g data-paper-data="{&quot;fillRule&quot;:&quot;evenodd&quot;,&quot;fillRuleOriginal&quot;:&quot;evenodd&quot;,&quot;isIcon&quot;:true,&quot;iconStyle&quot;:&quot;standalone&quot;,&quot;selectedEffects&quot;:{&quot;container&quot;:&quot;&quot;,&quot;transformation&quot;:&quot;rotate0;translate50;flipY&quot;,&quot;pattern&quot;:&quot;&quot;},&quot;bounds&quot;:{&quot;x&quot;:224.67884150239863,&quot;y&quot;:144.48926302348562,&quot;width&quot;:100.64231699520272,&quot;height&quot;:100.64331699835245},&quot;iconType&quot;:&quot;icon&quot;,&quot;rawIconId&quot;:&quot;846739&quot;,&quot;combineTerms&quot;:&quot;tool&quot;,&quot;suitableAsStandaloneIcon&quot;:true}" 
                  fill-rule="evenodd">
                  <g data-paper-data="{&quot;isPathIcon&quot;:true}"><path d="M224.67884,194.81042c0,27.79109 22.52907,50.32216 50.32116,50.32216c27.79209,0 50.32116,-22.53107 50.32116,-50.32216c0,-27.79009 -22.52907,-50.32116 -50.32116,-50.32116c-27.79209,0 -50.32116,22.53107 -50.32116,50.32116zM298.86908,172.54135c3.06101,3.27701 5.46902,7.20802 6.98502,11.61504l5.59102,-0.839l1.76701,11.78704l-5.58502,0.839c-0.158,4.65601 -1.304,9.12003 -3.27101,13.15004l4.54401,3.36001l-7.08402,9.58203l-4.54301,-3.35301c-3.27901,3.06001 -7.20802,5.46802 -11.61404,6.98402l0.841,5.58902l-11.78904,1.77001l-0.838,-5.59202c-4.50901,-0.149 -8.84003,-1.232 -12.77004,-3.08501l-0.38,-0.185l-3.36201,4.54401l-9.58503,-7.08302l3.35601,-4.54301c-3.06201,-3.27701 -5.46702,-7.20802 -6.98402,-11.61204l-5.58702,0.839l-1.76901,-11.78804l5.58702,-0.838c0.157,-4.65701 1.304,-9.12503 3.27101,-13.15304l-4.54401,-3.35901l7.08202,-9.58503l4.54601,3.35501c3.27701,-3.05901 7.20802,-5.46902 11.61204,-6.98202l-0.838,-5.59102l11.78404,-1.76701l0.84,5.58802c4.51001,0.15 8.84003,1.234 12.77204,3.08701l0.381,0.183l3.35601,-4.54401l9.58503,7.08402z" fill="#900707"></path>
                  <path d="M251.16492,198.38843c-1.97501,-13.16504 7.09502,-25.43608 20.25906,-27.41309c4.90102,-0.736 9.67403,0.061 13.84404,2.02601c7.03002,3.31601 12.33104,9.96703 13.57004,18.23306c1.97401,13.16504 -7.09402,25.44008 -20.25906,27.41209c-4.89902,0.737 -9.67703,-0.06 -13.84304,-2.02501c-7.03202,-3.31501 -12.33104,-9.96703 -13.57104,-18.23306z" fill="#900707"></path></g></g></g></g>
                  
                  </svg>